<?xml version="1.0" encoding="UTF-8" standalone="no"?>
<!DOCTYPE svg PUBLIC "-//W3C//DTD SVG 1.1//EN" "http://www.w3.org/Graphics/SVG/1.1/DTD/svg11.dtd">
<svg width="100%" height="100%" viewBox="0 0 2467 2550" version="1.1" xmlns="http://www.w3.org/2000/svg" xmlns:xlink="http://www.w3.org/1999/xlink" xml:space="preserve" xmlns:serif="http://www.serif.com/" style="fill-rule:evenodd;clip-rule:evenodd;stroke-linejoin:round;stroke-miterlimit:2;">
    <g id="Mesa-de-trabajo1" serif:id="Mesa de trabajo1" transform="matrix(1.02538,0,0,1.00448,-8.49545,-268.144)">
        <rect x="8.285" y="266.948" width="2405.93" height="2538.24" style="fill:none;"/>
        <g id="Layer-1" serif:id="Layer 1" transform="matrix(4.06353,0,0,4.14808,0.483187,2.13463)">
            <g transform="matrix(1,0,0,1,544.047,409.608)">
                <path d="M0,18.867C2.625,14.918 4.904,12.101 6.463,8.929C7.465,6.886 7.57,4.333 7.73,1.986C7.779,1.296 6.771,0.203 6.01,-0.098C5.473,-0.309 4.256,0.303 3.814,0.897C0.143,5.84 -1.744,11.253 0,18.867M-21.482,18.566C-20.922,18.353 -20.361,18.138 -19.799,17.926C-19.25,12.467 -19.488,7.118 -23.24,2.533C-24.141,1.433 -25.592,0.784 -26.789,-0.072C-27.34,1.327 -28.713,3.061 -28.303,4.068C-26.291,9.007 -23.803,13.752 -21.482,18.566M3.016,58.383C3.676,53.115 4.328,47.846 4.994,42.578C5.766,36.478 5.697,36.572 -0.248,34.89C-3.617,33.939 -6.828,32.426 -10.021,31.201C-13.971,32.601 -18.605,34.017 -23.006,35.955C-24.254,36.504 -25.648,38.627 -25.57,39.945C-25.277,44.869 -24.389,49.758 -23.756,54.662C-23.582,56.006 -23.525,57.365 -23.414,58.715C-23.809,58.918 -24.201,59.119 -24.596,59.32C-28.172,55.281 -31.754,51.248 -35.318,47.199C-36.471,45.888 -37.363,44.211 -38.762,43.295C-40.279,42.304 -42.328,41.326 -44.008,41.523C-52.135,42.48 -53.713,40.842 -50.768,33.48C-49.602,30.566 -49.695,28.14 -50.867,25.172C-51.625,23.25 -51.324,20.107 -50.188,18.365C-38.195,-0.021 -25.957,-18.25 -13.738,-36.488C-11.08,-40.453 -9.162,-40.371 -6.594,-36.51C5.16,-18.831 16.863,-1.115 28.768,16.465C31.107,19.922 32.01,22.885 30.1,26.918C29.279,28.652 29.883,31.41 30.58,33.449C33.094,40.797 31.676,42.846 24.189,41.433C21.105,40.851 19.338,41.838 17.488,44.082C13.283,49.185 8.848,54.097 4.504,59.088C4.008,58.853 3.512,58.617 3.016,58.383" style="fill:white;stroke:rgb(196,196,196);stroke-width:0.24px;"/>
            </g>
            <g transform="matrix(1,0,0,1,65.75,425.808)">
                <path d="M0,-74.833C-2.242,-72.897 -4.143,-71.255 -6.044,-69.613C-6.503,-69.92 -6.961,-70.226 -7.42,-70.533C-4.48,-75.919 -1.541,-81.305 1.399,-86.691C1.92,-86.833 2.441,-86.974 2.962,-87.115C6.516,-81.279 10.07,-75.444 13.624,-69.609C13.082,-69.167 12.54,-68.725 11.997,-68.283C10.24,-70.94 8.483,-73.598 6.726,-76.255C3.072,-69.224 3.961,-66.769 9.688,-65.433C13.469,-64.551 14.266,-62.776 14.239,-59.179C14.072,-37.054 14.101,-14.927 14.203,7.198C14.219,10.71 13.216,12.282 9.458,12.077C4.38,11.802 -0.724,11.862 -5.814,11.952C-8.505,12.001 -9.386,10.806 -9.383,8.272C-9.354,-14.291 -9.374,-36.854 -9.398,-59.418C-9.403,-63.243 -7.65,-65.293 -3.771,-65.815C1.674,-66.547 2.795,-69.018 0,-74.833" style="fill:white;stroke:rgb(196,196,196);stroke-width:0.24px;"/>
            </g>
            <g transform="matrix(1,0,0,1,362.371,310.242)">
                <path d="M0,-35.814C0.18,-35.403 0.361,-34.993 0.541,-34.582C3.273,-35.781 5.98,-37.856 8.744,-37.935C11.527,-38.013 14.369,-36.108 18.139,-34.721C15.74,-39.122 15.465,-43.811 10.166,-44.521C3.414,-45.426 2.82,-39.36 0,-35.814M10.121,-67.707C12.842,-60.865 15.531,-54.679 17.775,-48.336C21.748,-37.112 20.252,-25.377 20.539,-13.822C20.768,-4.643 20.875,4.541 20.902,13.724C20.918,18.49 20.604,23.257 20.514,28.026C20.471,30.376 19.902,31.88 17.053,31.841C14.254,31.803 13.598,30.375 13.611,27.98C13.658,20.705 13.51,13.427 13.695,6.157C13.781,2.72 12.846,1.136 9.076,1.109C5.186,1.082 4.477,2.888 4.551,6.216C4.711,13.342 4.508,20.475 4.652,27.602C4.711,30.49 3.945,31.893 0.762,31.832C-2.371,31.772 -3.172,30.34 -3.162,27.482C-3.098,8.141 -3.381,-11.205 -3.055,-30.54C-2.854,-42.439 0.373,-53.721 6.285,-64.142C6.641,-64.77 7.072,-65.372 7.564,-65.896C7.943,-66.297 8.471,-66.556 10.121,-67.707" style="fill:white;stroke:rgb(196,196,196);stroke-width:0.24px;"/>
            </g>
            <g transform="matrix(1,0,0,1,86.8218,403.023)">
                <path d="M0,-6.72C0.488,-6.512 0.975,-6.305 1.463,-6.097C2.934,-7.01 4.405,-7.921 5.876,-8.833C5.9,-9.277 5.924,-9.72 5.947,-10.164C4.303,-10.806 2.659,-11.449 1.014,-12.091C0.676,-10.301 0.338,-8.51 0,-6.72M-1.03,-32.516C1.101,-29.333 2.627,-27.239 3.962,-25.029C12.738,-10.501 21.535,4.015 30.127,18.652C31.035,20.197 31.08,22.587 30.674,24.396C30.513,25.111 28.032,25.655 26.6,25.675C18.466,25.796 10.329,25.681 2.195,25.765C-0.365,25.79 -1.871,25.339 -1.855,22.223C-1.768,5.382 -1.854,-11.46 -1.842,-28.302C-1.841,-29.233 -1.497,-30.164 -1.03,-32.516" style="fill:white;stroke:rgb(196,196,196);stroke-width:0.24px;"/>
            </g>
            <g transform="matrix(1,0,0,1,51.0767,406.589)">
                <path d="M0,-12.441C0.425,-13.274 0.851,-14.108 1.276,-14.942C0.048,-15.289 -1.374,-16.193 -2.362,-15.85C-3.797,-15.351 -4.921,-13.953 -6.178,-12.938C-5.258,-12.045 -4.358,-10.464 -3.413,-10.437C-2.296,-10.404 -1.14,-11.713 0,-12.441M1.122,-34.341C1.122,-32.696 1.119,-31.052 1.123,-29.407C1.158,-13.737 1.084,1.934 1.309,17.601C1.363,21.372 0.059,22.337 -3.5,22.228C-11.062,21.999 -18.637,22.171 -26.207,22.169C-31.205,22.167 -32.889,19.587 -30.49,15.004C-27.887,10.028 -24.915,5.243 -22.029,0.419C-15.596,-10.335 -9.131,-21.069 -2.634,-31.784C-1.97,-32.879 -0.993,-33.785 -0.161,-34.778C0.267,-34.633 0.694,-34.487 1.122,-34.341" style="fill:white;stroke:rgb(196,196,196);stroke-width:0.24px;"/>
            </g>
            <g transform="matrix(1,0,0,1,69.3076,460.904)">
                <path d="M0,-18.281C-3.37,-16.996 -4.278,-14.58 -3.146,-12.299C-2.68,-11.357 0.272,-11.652 3.043,-11.244C1.686,-14.383 0.914,-16.17 0,-18.281M25.552,2.807L-27.225,2.807C-24.889,-1.185 -22.714,-4.992 -20.449,-8.744C-18.667,-11.695 -16.998,-14.76 -14.844,-17.422C-13.623,-18.931 -11.581,-20.588 -9.815,-20.699C-3.587,-21.088 2.685,-20.965 8.93,-20.734C10.293,-20.683 12.162,-19.732 12.86,-18.611C17.099,-11.808 21.065,-4.838 25.552,2.807" style="fill:white;stroke:rgb(196,196,196);stroke-width:0.24px;"/>
            </g>
            <g transform="matrix(1,0,0,1,190.959,194.795)">
                <path d="M0,-46.816C-1.658,-44.783 -3.45,-43.546 -3.423,-42.351C-3.396,-41.121 -1.594,-39.93 -0.567,-38.722C0.618,-39.944 2.288,-40.997 2.797,-42.455C3.076,-43.256 1.401,-44.74 0,-46.816M-0.815,-53.826C4.436,-49.103 6.544,-43.572 6.611,-37.311C6.749,-24.359 6.551,-11.403 6.689,1.549C6.724,4.744 5.784,5.973 2.484,5.913C-8.401,5.719 -7.003,7.01 -7.094,-3.197C-7.199,-14.839 -7.247,-26.484 -7.082,-38.125C-7,-43.911 -4.328,-48.804 -0.815,-53.826" style="fill:white;stroke:rgb(196,196,196);stroke-width:0.24px;"/>
            </g>
            <g transform="matrix(1,0,0,1,241.539,189.904)">
                <path d="M0,-37.139C-2.442,-38.675 -3.881,-40.264 -5.288,-40.234C-6.297,-40.213 -8.063,-38 -8.019,-36.819C-7.976,-35.654 -6.024,-33.601 -5.013,-33.662C-3.606,-33.747 -2.295,-35.437 0,-37.139M1.332,-14.154C1.332,-7.182 1.24,-0.209 1.375,6.761C1.432,9.754 0.365,10.791 -2.679,10.819C-11.564,10.903 -11.403,11.026 -11.304,1.775C-11.171,-10.696 -11.711,-23.189 -11.115,-35.632C-10.915,-39.815 -8.173,-43.895 -6.397,-47.935C-6.295,-48.165 -3.813,-47.971 -3.44,-47.362C-0.736,-42.933 1.812,-38.484 1.529,-32.888C1.214,-26.658 1.457,-20.4 1.457,-14.154L1.332,-14.154Z" style="fill:white;stroke:rgb(196,196,196);stroke-width:0.24px;"/>
            </g>
            <g transform="matrix(1,0,0,1,225.176,164.611)">
                <path d="M0,0.239C0,4.009 0.195,7.796 -0.126,11.538C-0.216,12.586 -1.791,14.302 -2.75,14.348C-8.254,14.614 -13.778,14.416 -19.294,14.488C-21.733,14.519 -22.629,13.466 -22.603,11.08C-22.525,3.967 -22.499,-3.149 -22.612,-10.261C-22.654,-12.845 -21.745,-13.945 -19.113,-13.971C-13.465,-14.026 -7.818,-14.375 -2.175,-14.295C-1.421,-14.284 -0.12,-12.52 -0.055,-11.504C0.196,-7.603 0.047,-3.677 0.047,0.239L0,0.239Z" style="fill:white;stroke:rgb(196,196,196);stroke-width:0.24px;"/>
            </g>
            <g transform="matrix(1,0,0,1,399.31,313.42)">
                <path d="M0,7.111C-0.625,7.143 -1.254,7.174 -1.879,7.207C-2.869,8.637 -4.943,10.436 -4.609,11.416C-4.057,13.039 -2.121,14.7 -0.432,15.197C0.346,15.427 2.895,12.94 2.891,11.689C2.887,10.16 1.047,8.637 0,7.111M-11.041,28.262C-12.441,11.676 -9.652,-4.922 -9.988,-21.826C-3.439,-14.554 0.805,-5.881 5.719,2.344C10.699,10.68 15.705,18.998 21.27,28.27C18.105,28.417 16.295,28.416 14.506,28.603C11.299,28.937 10.178,27.62 10.193,24.379C10.229,17.552 10.074,17.551 3.299,17.634C2.428,17.645 1.555,17.646 0.684,17.685C-2.049,17.808 -5.596,16.972 -7.273,18.371C-8.781,19.627 -8.174,23.356 -8.629,25.972C-8.777,26.832 -9.326,27.622 -9.693,28.444L-11.041,28.262Z" style="fill:white;stroke:rgb(196,196,196);stroke-width:0.24px;"/>
            </g>
            <g transform="matrix(1,0,0,1,338.125,306.019)">
                <path d="M0,21.629C2.951,21.629 5.945,21.848 8.875,21.502C9.807,21.391 11.336,19.677 11.23,18.873C11.021,17.251 10.242,14.817 9.059,14.358C3.172,12.067 0.047,14.548 0,21.629M15.438,-14.169L15.438,35.283C14.846,35.323 14.256,35.363 13.666,35.403C13.488,33.345 13.02,31.26 13.199,29.233C13.496,25.889 12.17,24.849 8.961,25.042C5.486,25.252 1.937,24.692 -1.479,25.183C-2.963,25.396 -5.217,27.279 -5.365,28.603C-6.262,36.513 -6.09,36.532 -15.49,35.494C-5.363,18.36 4.467,1.729 14.297,-14.903C14.676,-14.659 15.057,-14.414 15.438,-14.169" style="fill:white;stroke:rgb(196,196,196);stroke-width:0.24px;"/>
            </g>
            <g transform="matrix(0,1,1,0,340.32,342.811)">
                <path d="M-125.919,-125.107L125.104,-125.107C125.104,-125.378 125.104,-125.647 125.107,-125.918L-125.881,-125.918C-125.894,-125.647 -125.906,-125.378 -125.919,-125.107" style="fill:white;stroke:rgb(196,196,196);stroke-width:0.24px;"/>
            </g>
            <g transform="matrix(0,-1,-1,0,475.272,462.49)">
                <path d="M-102.937,103.761L103.757,103.761C103.757,103.486 103.76,103.21 103.761,102.937L-102.879,102.937C-102.899,103.21 -102.917,103.486 -102.937,103.761" style="fill:white;stroke:rgb(196,196,196);stroke-width:0.24px;"/>
            </g>
            <g transform="matrix(1,0,0,1,213.938,124.689)">
                <path d="M0,-25.488C3.854,-18.439 9.586,-12.342 10.289,-3.696C10.496,-1.156 9.63,0.136 6.935,0.101C2.156,0.04 -2.626,0.031 -7.405,0.118C-10.795,0.179 -12.143,-1.514 -10.951,-4.496C-8.104,-11.619 -4.943,-18.618 -1.909,-25.667C-1.272,-25.608 -0.637,-25.548 0,-25.488" style="fill:white;stroke:rgb(196,196,196);stroke-width:0.24px;"/>
            </g>
            <g transform="matrix(0,1,1,0,320.055,315.094)">
                <path d="M-100.003,-99.256L99.255,-99.256C99.256,-99.506 99.256,-99.754 99.256,-100.003L-99.967,-100.003C-99.979,-99.754 -99.991,-99.506 -100.003,-99.256" style="fill:white;stroke:rgb(196,196,196);stroke-width:0.24px;"/>
            </g>
            <g transform="matrix(0,1,1,0,627.889,534.649)">
                <path d="M-85.664,-84.855L84.881,-84.855L84.881,-85.664L-85.69,-85.664C-85.682,-85.394 -85.672,-85.125 -85.664,-84.855" style="fill:white;stroke:rgb(196,196,196);stroke-width:0.24px;"/>
            </g>
            <g transform="matrix(1,0,0,1,68.4517,473.36)">
                <path d="M0,167.385L0,-0.045C0.312,0.17 1.429,0.537 1.524,1.082C1.771,2.487 1.543,3.973 1.543,5.424C1.543,58.397 1.548,111.369 1.538,164.342C1.538,165.371 1.361,166.401 1.268,167.43C0.845,167.414 0.422,167.399 0,167.385" style="fill:white;stroke:rgb(196,196,196);stroke-width:0.24px;"/>
            </g>
            <g transform="matrix(0,1,1,0,288.924,298.898)">
                <path d="M-81.889,-81.127L81.123,-81.127C81.124,-81.381 81.125,-81.635 81.127,-81.889L-81.882,-81.889C-81.884,-81.635 -81.887,-81.381 -81.889,-81.127" style="fill:white;stroke:rgb(196,196,196);stroke-width:0.24px;"/>
            </g>
            <g transform="matrix(0,1,1,0,434.465,419.694)">
                <path d="M-72.426,-71.607L71.607,-71.607L71.607,-72.425L-72.426,-72.425L-72.426,-71.607" style="fill:white;stroke:rgb(196,196,196);stroke-width:0.24px;"/>
            </g>
            <g transform="matrix(0,1,1,0,596.22,520.06)">
                <path d="M-71.028,-70.251L70.247,-70.251C70.249,-70.509 70.251,-70.769 70.251,-71.028L-70.987,-71.028C-71.001,-70.769 -71.014,-70.509 -71.028,-70.251" style="fill:white;stroke:rgb(196,196,196);stroke-width:0.24px;"/>
            </g>
            <g transform="matrix(1,0,0,1,213.936,127.795)">
                <path d="M0,8.816C-2.026,8.816 -4.053,8.82 -6.08,8.816C-10.863,8.805 -11.939,7.827 -11.208,3.245C-11.023,2.082 -9.285,0.354 -8.178,0.289C-2.84,-0.026 2.526,0.211 7.88,0.108C11.126,0.045 11.061,2.183 11.261,4.451C11.496,7.109 10.636,8.713 7.816,8.78C5.212,8.842 2.606,8.793 0,8.793L0,8.816Z" style="fill:white;stroke:rgb(196,196,196);stroke-width:0.24px;"/>
            </g>
            <g transform="matrix(0,-1,-1,0,636.752,551.536)">
                <path d="M-102.244,102.795L102.795,102.795L102.795,102.244L-102.15,102.244L-102.244,102.795Z" style="fill:white;stroke:rgb(196,196,196);stroke-width:0.24px;"/>
            </g>
            <g transform="matrix(0,1,1,0,111.907,524.869)">
                <path d="M-50.832,-50.183L50.18,-50.183C50.18,-50.399 50.183,-50.616 50.183,-50.832L-50.83,-50.832C-50.832,-50.616 -50.832,-50.399 -50.832,-50.183" style="fill:white;stroke:rgb(196,196,196);stroke-width:0.24px;"/>
            </g>
            <g transform="matrix(1,0,0,1,213.305,138.899)">
                <path d="M0,8.417C-1.884,8.417 -3.768,8.425 -5.652,8.415C-10.569,8.389 -11.442,7.574 -10.586,2.911C-10.39,1.838 -8.746,0.293 -7.702,0.239C-2.209,-0.041 3.305,0.13 8.812,0.053C11.701,0.012 12.025,1.693 11.985,4.023C11.945,6.393 11.872,8.458 8.693,8.403C5.797,8.353 2.898,8.392 0,8.392L0,8.417Z" style="fill:white;stroke:rgb(196,196,196);stroke-width:0.24px;"/>
            </g>
            <g transform="matrix(1,0,0,1,224.248,189.593)">
                <path d="M0,-7.57C1.54,0.125 1.54,0.12 -5.527,0.1C-9.739,0.088 -13.951,0.089 -18.162,0.094C-20.673,0.097 -21.785,-0.988 -21.712,-3.645C-21.641,-6.262 -21.002,-7.695 -18,-7.616C-12.073,-7.459 -6.138,-7.57 0,-7.57" style="fill:white;stroke:rgb(196,196,196);stroke-width:0.24px;"/>
            </g>
            <g transform="matrix(1,0,0,1,225.893,192.891)">
                <path d="M0,7.662C-8.097,7.662 -14.603,7.782 -21.09,7.505C-21.873,7.471 -23.193,5.254 -23.133,4.108C-23.062,2.755 -21.82,0.369 -20.985,0.324C-14.903,0.002 -8.77,-0.12 -2.722,0.446C-1.767,0.536 -1.167,4.415 0,7.662" style="fill:white;stroke:rgb(196,196,196);stroke-width:0.24px;"/>
            </g>
            <g transform="matrix(0,-1,-1,0,470.554,440.486)">
                <path d="M-90.019,90.437L90.435,90.437C90.436,90.298 90.436,90.16 90.437,90.019L-89.937,90.019C-89.964,90.16 -89.992,90.298 -90.019,90.437" style="fill:white;stroke:rgb(196,196,196);stroke-width:0.24px;"/>
            </g>
            <g transform="matrix(1,0,0,1,21.624,435.803)">
                <path d="M0,-2.916C0.632,-3.205 1.261,-3.74 1.895,-3.744C10.484,-3.82 19.075,-3.873 27.663,-3.758C28.458,-3.746 29.237,-2.553 30.024,-1.908C28.772,-0.994 27.545,0.67 26.265,0.713C18.848,0.957 11.414,0.943 3.995,0.709C2.479,0.66 1.006,-0.709 -0.487,-1.471C-0.325,-1.953 -0.162,-2.434 0,-2.916" style="fill:white;stroke:rgb(196,196,196);stroke-width:0.24px;"/>
            </g>
            <g transform="matrix(1,0,0,1,100.003,436.543)">
                <path d="M0,-4.599C3.919,-4.601 7.844,-4.724 11.752,-4.513C12.733,-4.462 13.658,-3.341 14.609,-2.71C13.699,-1.794 12.811,-0.107 11.877,-0.081C3.756,0.133 -4.375,0.124 -12.499,-0.05C-13.322,-0.068 -14.113,-1.591 -14.919,-2.417C-14.01,-3.144 -13.133,-4.443 -12.186,-4.497C-8.135,-4.732 -4.063,-4.597 0,-4.599" style="fill:white;stroke:rgb(196,196,196);stroke-width:0.24px;"/>
            </g>
            <g transform="matrix(1,0,0,1,372.496,350.643)">
                <path d="M0,-36.195L0,0C-3.352,-2.69 -3.348,-33.093 0,-36.195" style="fill:white;stroke:rgb(196,196,196);stroke-width:0.24px;"/>
            </g>
            <g transform="matrix(0,1,1,0,138.993,536.618)">
                <path d="M-62.575,-61.845L61.841,-61.845C61.841,-62.089 61.843,-62.332 61.845,-62.575L-62.477,-62.575C-62.511,-62.332 -62.542,-62.089 -62.575,-61.845" style="fill:white;stroke:rgb(196,196,196);stroke-width:0.24px;"/>
            </g>
            <g transform="matrix(1,0,0,1,181.15,200.613)">
                <path d="M0,-11.119C-0.183,-7.122 -0.345,-3.598 -0.51,0L-10.476,0C-7.191,-3.486 -3.787,-7.1 0,-11.119" style="fill:white;stroke:rgb(196,196,196);stroke-width:0.24px;"/>
            </g>
            <g transform="matrix(0.996219,0.0868779,0.0868779,-0.996219,341.574,341.984)">
                <path d="M0.336,0.017C-2.408,-0.219 -5.17,-1.127 -5.37,3.171C-5.591,7.923 -2.051,6.588 0.336,6.97C2.557,7.324 5.027,8 5.422,4.271C5.895,-0.157 2.887,0.198 0.336,0.017" style="fill:white;stroke:rgb(196,196,196);stroke-width:0.24px;"/>
            </g>
            <g transform="matrix(0.999625,-0.0273733,-0.0273733,-0.999625,400.202,342.015)">
                <path d="M-0.101,0.001C-2.71,0.094 -5.625,-0.352 -5.423,3.799C-5.235,7.651 -2.567,7.13 -0.101,6.979C2.355,6.829 5.471,7.762 5.434,3.487C5.398,-0.691 2.472,-0.001 -0.101,0.001" style="fill:white;stroke:rgb(196,196,196);stroke-width:0.24px;"/>
            </g>
            <g transform="matrix(1,0,0,1,220.993,205.32)">
                <path d="M0,5.147C-4.957,5.496 -9.496,5.814 -14.303,6.153C-14.65,3.559 -13.409,1.345 -10.774,0.494C-6.131,-1.006 -2.646,0.564 0,5.147" style="fill:white;stroke:rgb(196,196,196);stroke-width:0.24px;"/>
            </g>
            <g transform="matrix(1,0,0,1,255.575,192.613)">
                <path d="M0,7.546C-9.819,8.852 -10.234,8.832 -8.851,-1.306C-6.021,1.525 -3.018,4.528 0,7.546" style="fill:white;stroke:rgb(196,196,196);stroke-width:0.24px;"/>
            </g>
            <g transform="matrix(1,0,0,1,40.8931,448.994)">
                <path d="M0,9.17C-1.06,8.984 -1.256,9.012 -1.335,8.926C-1.894,8.34 -3.01,7.436 -2.878,7.176C-1.67,4.803 -0.332,2.477 1.216,0.315C1.441,0 2.978,0.611 3.901,0.824C4.006,0.848 4.17,1.102 4.139,1.162C2.728,3.92 1.298,6.668 0,9.17" style="fill:white;stroke:rgb(196,196,196);stroke-width:0.24px;"/>
            </g>
            <g transform="matrix(1,0,0,1,91.1343,457.934)">
                <path d="M0,-9.963C1.415,-9.57 3.431,-9.619 4.115,-8.69C5.483,-6.832 7.051,-4.326 6.81,-2.291C6.539,0 4.21,-0.486 3.025,-2.268C1.696,-4.266 0.656,-6.457 -0.509,-8.565C-0.339,-9.031 -0.169,-9.498 0,-9.963" style="fill:white;stroke:rgb(196,196,196);stroke-width:0.24px;"/>
            </g>
            <g transform="matrix(1,0,0,1,61.3662,468.678)">
                <path d="M0,-1.035L14.667,-1.035C14.668,-0.689 14.669,-0.344 14.67,0L-0.22,0C-0.147,-0.344 -0.073,-0.689 0,-1.035" style="fill:white;stroke:rgb(196,196,196);stroke-width:0.24px;"/>
            </g>
        </g>
    </g>
</svg>
